<mxfile host="app.diagrams.net" agent="Mozilla/5.0 (Macintosh; Intel Mac OS X 10_15_7) AppleWebKit/537.36 (KHTML, like Gecko) Chrome/133.0.0.0 Safari/537.36" version="26.0.16">
  <diagram name="Page-1" id="ywthNiMjYePhlFCz2Uhy">
    <mxGraphModel dx="937" dy="595" grid="1" gridSize="10" guides="1" tooltips="1" connect="1" arrows="1" fold="1" page="1" pageScale="1" pageWidth="827" pageHeight="1169" math="0" shadow="0">
      <root>
        <mxCell id="0" />
        <mxCell id="1" parent="0" />
        <mxCell id="BWCX3i24N0bs6A5otOJ9-1" value="Player" style="whiteSpace=wrap;html=1;aspect=fixed;" vertex="1" parent="1">
          <mxGeometry x="50" y="110" width="80" height="80" as="geometry" />
        </mxCell>
        <mxCell id="BWCX3i24N0bs6A5otOJ9-2" value="Choose&lt;div&gt;Difficulty&lt;/div&gt;" style="ellipse;whiteSpace=wrap;html=1;aspect=fixed;" vertex="1" parent="1">
          <mxGeometry x="200" y="210" width="80" height="80" as="geometry" />
        </mxCell>
        <mxCell id="BWCX3i24N0bs6A5otOJ9-4" value="Load Game data" style="ellipse;whiteSpace=wrap;html=1;aspect=fixed;" vertex="1" parent="1">
          <mxGeometry x="90" y="300" width="80" height="80" as="geometry" />
        </mxCell>
        <mxCell id="BWCX3i24N0bs6A5otOJ9-5" value="Check for end" style="ellipse;whiteSpace=wrap;html=1;aspect=fixed;" vertex="1" parent="1">
          <mxGeometry x="620" y="250" width="80" height="80" as="geometry" />
        </mxCell>
        <mxCell id="BWCX3i24N0bs6A5otOJ9-6" value="Process Guess" style="ellipse;whiteSpace=wrap;html=1;aspect=fixed;" vertex="1" parent="1">
          <mxGeometry x="374" y="90" width="80" height="80" as="geometry" />
        </mxCell>
        <mxCell id="BWCX3i24N0bs6A5otOJ9-7" value="Render word" style="ellipse;whiteSpace=wrap;html=1;aspect=fixed;" vertex="1" parent="1">
          <mxGeometry x="530" y="400" width="80" height="80" as="geometry" />
        </mxCell>
        <mxCell id="BWCX3i24N0bs6A5otOJ9-8" value="Game Status" style="ellipse;whiteSpace=wrap;html=1;aspect=fixed;" vertex="1" parent="1">
          <mxGeometry x="374" y="250" width="80" height="80" as="geometry" />
        </mxCell>
        <mxCell id="BWCX3i24N0bs6A5otOJ9-13" value="Game Data.json" style="html=1;dashed=0;whiteSpace=wrap;shape=partialRectangle;right=0;" vertex="1" parent="1">
          <mxGeometry x="290" y="400" width="100" height="55" as="geometry" />
        </mxCell>
        <mxCell id="BWCX3i24N0bs6A5otOJ9-17" value="" style="curved=1;endArrow=classic;html=1;rounded=0;entryX=0.5;entryY=1;entryDx=0;entryDy=0;exitX=0;exitY=0.5;exitDx=0;exitDy=0;" edge="1" parent="1" source="BWCX3i24N0bs6A5otOJ9-13" target="BWCX3i24N0bs6A5otOJ9-4">
          <mxGeometry width="50" height="50" relative="1" as="geometry">
            <mxPoint x="90" y="430" as="sourcePoint" />
            <mxPoint x="210" y="420" as="targetPoint" />
            <Array as="points">
              <mxPoint x="170" y="430" />
            </Array>
          </mxGeometry>
        </mxCell>
        <mxCell id="BWCX3i24N0bs6A5otOJ9-19" value="Extract word lists&lt;div&gt;and difficulty keys&lt;/div&gt;" style="edgeLabel;html=1;align=center;verticalAlign=middle;resizable=0;points=[];" vertex="1" connectable="0" parent="BWCX3i24N0bs6A5otOJ9-17">
          <mxGeometry x="0.1997" y="-4" relative="1" as="geometry">
            <mxPoint x="20" y="-6" as="offset" />
          </mxGeometry>
        </mxCell>
        <mxCell id="BWCX3i24N0bs6A5otOJ9-18" value="" style="curved=1;endArrow=classic;html=1;rounded=0;exitX=0.5;exitY=0;exitDx=0;exitDy=0;entryX=0;entryY=0.5;entryDx=0;entryDy=0;" edge="1" parent="1" source="BWCX3i24N0bs6A5otOJ9-4" target="BWCX3i24N0bs6A5otOJ9-2">
          <mxGeometry width="50" height="50" relative="1" as="geometry">
            <mxPoint x="70" y="280" as="sourcePoint" />
            <mxPoint x="190" y="270" as="targetPoint" />
            <Array as="points">
              <mxPoint x="160" y="260" />
            </Array>
          </mxGeometry>
        </mxCell>
        <mxCell id="BWCX3i24N0bs6A5otOJ9-20" value="" style="curved=1;endArrow=classic;html=1;rounded=0;exitX=1;exitY=0.75;exitDx=0;exitDy=0;entryX=0.5;entryY=0;entryDx=0;entryDy=0;" edge="1" parent="1" source="BWCX3i24N0bs6A5otOJ9-1" target="BWCX3i24N0bs6A5otOJ9-2">
          <mxGeometry width="50" height="50" relative="1" as="geometry">
            <mxPoint x="190" y="180" as="sourcePoint" />
            <mxPoint x="310" y="170" as="targetPoint" />
            <Array as="points">
              <mxPoint x="230" y="170" />
            </Array>
          </mxGeometry>
        </mxCell>
        <mxCell id="BWCX3i24N0bs6A5otOJ9-23" value="&lt;font&gt;Input: desired&amp;nbsp;&lt;/font&gt;&lt;div&gt;&lt;font&gt;difficulty&lt;/font&gt;&lt;/div&gt;" style="edgeLabel;html=1;align=center;verticalAlign=middle;resizable=0;points=[];" vertex="1" connectable="0" parent="BWCX3i24N0bs6A5otOJ9-20">
          <mxGeometry x="-0.2744" y="-3" relative="1" as="geometry">
            <mxPoint x="9" y="7" as="offset" />
          </mxGeometry>
        </mxCell>
        <mxCell id="BWCX3i24N0bs6A5otOJ9-24" value="" style="curved=1;endArrow=classic;html=1;rounded=0;exitX=0.5;exitY=1;exitDx=0;exitDy=0;entryX=0;entryY=1;entryDx=0;entryDy=0;" edge="1" parent="1" source="BWCX3i24N0bs6A5otOJ9-2" target="BWCX3i24N0bs6A5otOJ9-8">
          <mxGeometry width="50" height="50" relative="1" as="geometry">
            <mxPoint x="280" y="280" as="sourcePoint" />
            <mxPoint x="374" y="320" as="targetPoint" />
            <Array as="points">
              <mxPoint x="310" y="340" />
            </Array>
          </mxGeometry>
        </mxCell>
        <mxCell id="BWCX3i24N0bs6A5otOJ9-25" value="Store&lt;br&gt;target word" style="edgeLabel;html=1;align=center;verticalAlign=middle;resizable=0;points=[];" vertex="1" connectable="0" parent="BWCX3i24N0bs6A5otOJ9-24">
          <mxGeometry x="0.1077" y="8" relative="1" as="geometry">
            <mxPoint x="-3" y="-11" as="offset" />
          </mxGeometry>
        </mxCell>
        <mxCell id="BWCX3i24N0bs6A5otOJ9-26" value="" style="curved=1;endArrow=classic;html=1;rounded=0;exitX=1;exitY=0.25;exitDx=0;exitDy=0;entryX=0.5;entryY=0;entryDx=0;entryDy=0;" edge="1" parent="1" source="BWCX3i24N0bs6A5otOJ9-1" target="BWCX3i24N0bs6A5otOJ9-6">
          <mxGeometry width="50" height="50" relative="1" as="geometry">
            <mxPoint x="180" y="150" as="sourcePoint" />
            <mxPoint x="300" y="140" as="targetPoint" />
            <Array as="points">
              <mxPoint x="250" y="50" />
            </Array>
          </mxGeometry>
        </mxCell>
        <mxCell id="BWCX3i24N0bs6A5otOJ9-27" value="Input: Guess" style="edgeLabel;html=1;align=center;verticalAlign=middle;resizable=0;points=[];" vertex="1" connectable="0" parent="BWCX3i24N0bs6A5otOJ9-26">
          <mxGeometry x="0.1983" y="-23" relative="1" as="geometry">
            <mxPoint x="-36" as="offset" />
          </mxGeometry>
        </mxCell>
        <mxCell id="BWCX3i24N0bs6A5otOJ9-28" value="" style="curved=1;endArrow=classic;html=1;rounded=0;entryX=1;entryY=0.5;entryDx=0;entryDy=0;exitX=1;exitY=0;exitDx=0;exitDy=0;" edge="1" parent="1" source="BWCX3i24N0bs6A5otOJ9-8" target="BWCX3i24N0bs6A5otOJ9-6">
          <mxGeometry width="50" height="50" relative="1" as="geometry">
            <mxPoint x="454" y="260" as="sourcePoint" />
            <mxPoint x="454" y="180" as="targetPoint" />
            <Array as="points">
              <mxPoint x="500" y="200" />
            </Array>
          </mxGeometry>
        </mxCell>
        <mxCell id="BWCX3i24N0bs6A5otOJ9-29" value="Get target word,&lt;br&gt;list of guesses,&amp;nbsp;&lt;div&gt;and points&lt;/div&gt;" style="edgeLabel;html=1;align=center;verticalAlign=middle;resizable=0;points=[];" vertex="1" connectable="0" parent="BWCX3i24N0bs6A5otOJ9-28">
          <mxGeometry x="0.2279" y="6" relative="1" as="geometry">
            <mxPoint x="-5" y="22" as="offset" />
          </mxGeometry>
        </mxCell>
        <mxCell id="BWCX3i24N0bs6A5otOJ9-30" value="" style="curved=1;endArrow=classic;html=1;rounded=0;entryX=0;entryY=0;entryDx=0;entryDy=0;exitX=0;exitY=0.5;exitDx=0;exitDy=0;" edge="1" parent="1" source="BWCX3i24N0bs6A5otOJ9-6" target="BWCX3i24N0bs6A5otOJ9-8">
          <mxGeometry width="50" height="50" relative="1" as="geometry">
            <mxPoint x="364" y="180" as="sourcePoint" />
            <mxPoint x="374" y="260" as="targetPoint" />
            <Array as="points">
              <mxPoint x="320" y="200" />
            </Array>
          </mxGeometry>
        </mxCell>
        <mxCell id="BWCX3i24N0bs6A5otOJ9-32" value="Updated&amp;nbsp;&lt;div&gt;Guess list&lt;br&gt;and points&lt;/div&gt;" style="edgeLabel;html=1;align=center;verticalAlign=middle;resizable=0;points=[];" vertex="1" connectable="0" parent="BWCX3i24N0bs6A5otOJ9-30">
          <mxGeometry x="-0.0894" y="8" relative="1" as="geometry">
            <mxPoint x="20" as="offset" />
          </mxGeometry>
        </mxCell>
        <mxCell id="BWCX3i24N0bs6A5otOJ9-33" value="" style="curved=1;endArrow=classic;html=1;rounded=0;exitX=1;exitY=0.5;exitDx=0;exitDy=0;entryX=0;entryY=0;entryDx=0;entryDy=0;" edge="1" parent="1" source="BWCX3i24N0bs6A5otOJ9-8" target="BWCX3i24N0bs6A5otOJ9-5">
          <mxGeometry width="50" height="50" relative="1" as="geometry">
            <mxPoint x="470" y="290" as="sourcePoint" />
            <mxPoint x="590" y="280" as="targetPoint" />
            <Array as="points">
              <mxPoint x="540" y="230" />
            </Array>
          </mxGeometry>
        </mxCell>
        <mxCell id="BWCX3i24N0bs6A5otOJ9-34" value="Get target word,&lt;div&gt;list of guesses&lt;/div&gt;&lt;div&gt;and points&lt;/div&gt;" style="edgeLabel;html=1;align=center;verticalAlign=middle;resizable=0;points=[];" vertex="1" connectable="0" parent="BWCX3i24N0bs6A5otOJ9-33">
          <mxGeometry x="0.0832" y="-11" relative="1" as="geometry">
            <mxPoint y="18" as="offset" />
          </mxGeometry>
        </mxCell>
        <mxCell id="BWCX3i24N0bs6A5otOJ9-35" value="" style="curved=1;endArrow=classic;html=1;rounded=0;exitX=0.5;exitY=0;exitDx=0;exitDy=0;entryX=0.5;entryY=0;entryDx=0;entryDy=0;" edge="1" parent="1" source="BWCX3i24N0bs6A5otOJ9-5" target="BWCX3i24N0bs6A5otOJ9-1">
          <mxGeometry width="50" height="50" relative="1" as="geometry">
            <mxPoint x="670" y="210" as="sourcePoint" />
            <mxPoint x="230" y="30" as="targetPoint" />
            <Array as="points">
              <mxPoint x="550" y="40" />
              <mxPoint x="180" y="20" />
            </Array>
          </mxGeometry>
        </mxCell>
        <mxCell id="BWCX3i24N0bs6A5otOJ9-36" value="Tell the plyer if the game is over&lt;div&gt;or not&lt;/div&gt;" style="edgeLabel;html=1;align=center;verticalAlign=middle;resizable=0;points=[];" vertex="1" connectable="0" parent="BWCX3i24N0bs6A5otOJ9-35">
          <mxGeometry x="0.0744" relative="1" as="geometry">
            <mxPoint y="-1" as="offset" />
          </mxGeometry>
        </mxCell>
        <mxCell id="BWCX3i24N0bs6A5otOJ9-37" value="" style="curved=1;endArrow=classic;html=1;rounded=0;entryX=0.5;entryY=0;entryDx=0;entryDy=0;exitX=1;exitY=1;exitDx=0;exitDy=0;" edge="1" parent="1" source="BWCX3i24N0bs6A5otOJ9-8" target="BWCX3i24N0bs6A5otOJ9-7">
          <mxGeometry width="50" height="50" relative="1" as="geometry">
            <mxPoint x="420" y="340" as="sourcePoint" />
            <mxPoint x="540" y="330" as="targetPoint" />
            <Array as="points">
              <mxPoint x="550" y="300" />
            </Array>
          </mxGeometry>
        </mxCell>
        <mxCell id="BWCX3i24N0bs6A5otOJ9-38" value="Get list of guesses&lt;div&gt;and points&lt;/div&gt;" style="edgeLabel;html=1;align=center;verticalAlign=middle;resizable=0;points=[];" vertex="1" connectable="0" parent="BWCX3i24N0bs6A5otOJ9-37">
          <mxGeometry x="-0.307" y="20" relative="1" as="geometry">
            <mxPoint x="20" y="35" as="offset" />
          </mxGeometry>
        </mxCell>
        <mxCell id="BWCX3i24N0bs6A5otOJ9-39" value="" style="curved=1;endArrow=classic;html=1;rounded=0;entryX=0.25;entryY=1;entryDx=0;entryDy=0;exitX=0.5;exitY=1;exitDx=0;exitDy=0;" edge="1" parent="1" source="BWCX3i24N0bs6A5otOJ9-7" target="BWCX3i24N0bs6A5otOJ9-1">
          <mxGeometry width="50" height="50" relative="1" as="geometry">
            <mxPoint x="380" y="460" as="sourcePoint" />
            <mxPoint x="90" y="200" as="targetPoint" />
            <Array as="points">
              <mxPoint x="490" y="530" />
              <mxPoint x="150" y="530" />
              <mxPoint x="10" y="330" />
            </Array>
          </mxGeometry>
        </mxCell>
        <mxCell id="BWCX3i24N0bs6A5otOJ9-40" value="Display current progress of correct guesses,&lt;div&gt;as well as all guesses that have been taken&lt;/div&gt;" style="edgeLabel;html=1;align=center;verticalAlign=middle;resizable=0;points=[];" vertex="1" connectable="0" parent="BWCX3i24N0bs6A5otOJ9-39">
          <mxGeometry x="-0.2203" y="-2" relative="1" as="geometry">
            <mxPoint x="3" y="-8" as="offset" />
          </mxGeometry>
        </mxCell>
      </root>
    </mxGraphModel>
  </diagram>
</mxfile>
